# xmcd
#
# Track frame offsets:
#	150
#	21374
#	35999
#	49334
#	62123
#	90433
#	123674
#	159300
#	186414
#	198254
#	224739
#	239063
#	254928
#	278958
#	303101
#
# Disc length: 4355 seconds
#
# Revision: 0
# Processed by: cddbd v1.5.2PL0 Copyright (c) Steve Scherf et al.
# Submitted via: EZCDAudioConverter 7.0.6.1
#
DISCID=f011010f
DTITLE=Bill Brewster Presents Tribal Rites 2/3
DYEAR=1900
DGENRE=
TTITLE0=Bobbie Gentry - Thunder In The Afternoon
TTITLE1=Latin Breed - Maranatha
TTITLE2=Banzai - Rhythm Kung Fu
TTITLE3=Freddi and Henchi - Cartoon People
TTITLE4=Aax Donnell and Eric Malone - Golden Cage
TTITLE5=The General - Life In The Big City
TTITLE6=Final Edition - No Limit
TTITLE7=Sweet Potato Pie - Hot Disco Night (Are You Ready?)
TTITLE8=Little Reuben - (I Am) Drum
TTITLE9=General Crook - What Time It Is (Part 2 and 1) [Bill Brewster Edit]
TTITLE10=Curtis Green - I Just Gotta Get Down (Part 1)
TTITLE11=Nashville Rhythm Section - I Can't Go For That
TTITLE12=Dooley Silverspoon - Mr. Deluxe (Part 1 and 2) [Bill Brewster Edit]
TTITLE13=Floyd Beck - Party Is The Solution
TTITLE14=Ströer - Don't Stay For Breakfast
EXTD=
EXTT0=
EXTT1=
EXTT2=
EXTT3=
EXTT4=
EXTT5=
EXTT6=
EXTT7=
EXTT8=
EXTT9=
EXTT10=
EXTT11=
EXTT12=
EXTT13=
EXTT14=
PLAYORDER=
